<?xml version="1.0" encoding="utf-8"?>
<!-- Generator: Adobe Illustrator 25.4.1, SVG Export Plug-In . SVG Version: 6.00 Build 0)  -->
<svg version="1.1" id="Layer_1" xmlns="http://www.w3.org/2000/svg" xmlns:xlink="http://www.w3.org/1999/xlink" x="0px" y="0px"
	 viewBox="0 0 3000 3000" style="enable-background:new 0 0 3000 3000;" xml:space="preserve">
<style type="text/css">
	.st0{fill:#C5A974;}
	.st1{fill:#D9D7CD;}
</style>
<g>
	<path class="st0" d="M610.4,1230.9c-18.6,18.7-37.3,37.5-55.9,56.2c-62,62.5-124.1,124.9-186.1,187.4c-15,15.1-14.9,15.1-0.3,29.7
		c77.2,76.8,154.4,153.5,231.5,230.3c4,3.9,9.4,6.9,10.5,13.2c-2.6,6-7.9,4.1-12.1,4c-33-0.2-66.1-0.9-99.1-0.6
		c-10.9,0.1-18.4-3.6-25.8-11.1c-80.6-81.6-161.3-163.1-242.3-244.3c-7.6-7.6-7.8-12.2-0.2-19.7c80.9-79.7,161.5-159.6,242.1-239.5
		c5-5,9.8-9.6,17.7-9.6c39.3,0.1,78.5,0.1,117.8,0.1C608.9,1228.4,609.6,1229.7,610.4,1230.9z"/>
	<path class="st0" d="M289.3,1297.3c0,10.4-1.4,21.1,0.3,31.2c4.1,25.7-6.7,43.4-25,60.4c-29.8,27.5-57.6,57-86.1,85.8
		c-12.7,12.9-12.7,13.8-0.1,26.4c32.7,32.8,65.5,65.5,98.7,97.8c8.9,8.7,12.9,17.7,12.6,30.5c-0.8,35.3-0.5,70.7,0.1,106
		c0.2,12.1-4.1,16.4-16.1,16.2c-33-0.6-66-0.6-99-0.2c-11.8,0.1-16.1-3.9-16.1-16.2c0.4-163.9,0.4-327.8,0.1-491.8
		c0-12.1,3.9-16.3,16-16.1c33,0.6,66,0.6,99-0.1c12.7-0.3,15.9,4.6,15.4,16.3c-0.8,17.9-0.2,35.9-0.2,53.9
		C288.9,1297.3,289.1,1297.3,289.3,1297.3z"/>
	<path class="st1" d="M1114.6,1604.7c-76.7-4.2-124.1-56.2-120.5-132c3-62.8,61.7-113.3,127.2-109.4
		c76.3,4.6,122.5,56.8,118.3,133.9C1236.1,1558.9,1178.7,1608.2,1114.6,1604.7z M1200.9,1487.7c0.4-25.4-4.8-49.4-19.1-70.9
		c-28.8-43.5-93-45.9-124.7-4.9c-29.2,37.8-31.2,99.2-4.5,138.7c34.5,50.9,104.6,47.7,134.5-6.1
		C1196.9,1526.7,1200.4,1507.6,1200.9,1487.7z"/>
	<path class="st1" d="M1332.8,1424.8c-4.9,5.6-3,12.2-3,18.2c-0.2,46.4,0,92.8-0.1,139.1c0,7.2,2.8,15.6-9.8,15.8
		c-11.5,0.1-13.1-5.7-13-15.3c0.3-65.5,0.1-131,0.5-196.5c0-6.1-4.3-15.8,5.6-17.5c9.2-1.6,19-2.8,26.8,7.1
		c20.4,26,41.7,51.2,62.6,76.7c18.7,22.9,37.2,45.9,55.8,68.8c2.8,3.4,5.2,7.9,11.2,6.9c5.2-5.8,3-13,3.1-19.6
		c0.3-42.3,0.4-84.6,0.3-127c0-7.5-0.4-13.8,10.3-13.8c10.8-0.1,10.3,6.5,10.3,13.8c0.1,67.8,0.3,135.7,0.4,203.5
		c0,5,1.3,11.1-5.8,12.7c-6.1,1.4-11.4-0.6-15.4-5.7c-10.5-13.1-21-26.2-31.5-39.3c-32.7-40.6-65.3-81.2-98-121.8
		C1340.8,1428.2,1338.7,1425.2,1332.8,1424.8z"/>
	<path class="st1" d="M1595.3,1420.3c0,11,0,20.1,0,29.2c0,44.1,0.2,88.1,0.1,132.2c0,5.4,2.5,11.9-4.8,15.2
		c-9.5,4.2-15.6-0.4-15.6-12.4c-0.1-56.3,0-112.5,0-168.8c0-9.9-0.4-19.7,0.2-29.6c0.4-6.3-4.1-15.8,5.6-17.6
		c8.6-1.7,18.5-3.4,25.6,5.8c5.3,6.9,11.4,13.1,16.9,19.9c32.1,39.6,64.1,79.3,96.2,119c3.3,4.1,6.4,8.3,10.2,11.9
		c5.1,4.8,9.5,4,11-3.3c0.8-3.9,0.5-8.1,0.6-12.1c0.1-41.8,0.1-83.5,0.5-125.3c0-5.4-2.4-12,4.5-15.6c8.7-4.5,15.5,0.7,15.6,12.5
		c0.1,40,0.1,80,0.1,120c0,26.7,0.3,53.4,0.2,80c0,5.5,2.9,13-4.1,15.4c-7.3,2.5-14.3,0.2-19.7-6.9c-15.1-19.8-30.8-39.2-46.4-58.6
		c-26.8-33.4-53.8-66.8-80.7-100.1C1607.9,1427.2,1605.1,1422.6,1595.3,1420.3z"/>
	<path class="st1" d="M2852.9,1369.1c-12.4,11.4-22.6,20.3-32.3,29.8c-19,18.6-37.9,37.5-56.6,56.4c-12.7,12.8-12.6,13-1.2,26.2
		c28.7,33.4,57.4,66.7,86,100.2c4,4.6,9.8,8.3,10.1,15.5c-0.9,0.3-1.4,0.5-1.9,0.6c-27.5,4.3-46.1-7.2-62-29.6
		c-17.1-23.9-38-45.2-57.5-67.4c-3.6-4-6.3-11.5-13.1-9.3c-7,2.3-4.4,9.8-4.5,15.2c-0.2,25.5-0.2,51,0.1,76.5
		c0.1,8.2,0.7,14.7-11.1,14.6c-23.1-0.2-24.2-0.1-24.2-14.1c-0.1-67.2,0.1-134.4-0.4-201.6c-0.1-10.6,3-14.1,13.7-14.2
		c21.5,0,21.5-0.6,21.7,21.5c0.1,19.1,0,38.2,0.3,57.4c0.1,4.8-1.8,11.3,4.8,13.4c5.3,1.7,8.2-3.5,11.2-6.6
		c23.7-23.8,47.9-47.2,70.4-72.1C2818.6,1368.1,2832,1365.7,2852.9,1369.1z"/>
	<path class="st1" d="M2253,1423.9c-5.1-1.5-6.7-4.7-8.8-7.4c-24.5-30.4-57.3-39.8-93.5-30.9c-35.8,8.8-53.8,37.1-60.7,71.4
		c-5.1,25.2-3.9,50.9,6.8,75.1c27,60.7,100.9,72.9,146.5,24.3c2.7-2.9,3.9-7.2,8.2-8.6c7.3,18.1,6.8,22.5-7.9,33.3
		c-41.1,30.4-85.8,30.4-130,10.1c-41.9-19.2-63.7-54.2-65.4-100.7c-1.8-49.5,17-89.2,61.4-112.2c43.6-22.5,88.4-21.3,130.7,5.4
		C2258.2,1395.2,2259,1400.1,2253,1423.9z"/>
	<path class="st1" d="M929.7,1424.3c-4.5,0.5-5.6-3.4-7.8-6c-25.9-31.5-60.9-42.9-97.6-31.8c-30.8,9.3-54.5,41.4-57.7,79.6
		c-1.6,19.1-0.8,38,4.8,56.7c17.9,59.7,85.2,82.7,135.3,45.7c8.3-6.1,15.6-13.6,23.3-20.5c5.4,22.8,4.1,26.2-14.6,38.3
		c-56.5,36.4-139.8,17.2-172.3-39.6c-35.6-62.4-14.7-140.1,47.3-169.9c41.7-20,84.1-19.2,124.4,5.8
		C933.9,1394.4,935.6,1400.6,929.7,1424.3z"/>
	<path class="st1" d="M1846.5,1482.5c0-33,0.5-66.1-0.2-99.1c-0.3-12.3,3.8-15.9,15.9-15.7c37.7,0.6,75.3,0.1,113,0.2
		c6,0,14-1.8,14,8.2c0.1,10.4-7.5,9.6-14.7,9.5c-26.1-0.2-52.2,0.3-78.2-0.5c-10.6-0.3-14.5,2.9-14,13.7c0.8,18.5,0.7,37.1,0.4,55.6
		c-0.2,9.6,3.3,13.5,13.2,13.2c19.1-0.6,38.3,0,57.4-0.4c7.8-0.2,14,0.2,13.7,10.5c-0.3,9.8-6.3,8.5-13.2,8.2
		c-19.1-0.7-38.3-0.1-57.4-0.6c-9.2-0.3-13.9,1.9-13.7,12.4c0.6,23.2,0.4,46.4,0.1,69.5c-0.1,9.9,4.1,13.1,13.6,12.9
		c28.4-0.3,56.8,0,85.2,0.1c7.1,0,15.2-0.8,14.5,9.8c-0.6,9.6-8.5,7.5-14.7,7.5c-41.1-0.1-82.3-0.7-123.4-0.2
		c-10.3,0.1-11.4-4.2-11.4-12.3C1846.6,1550.9,1846.5,1516.7,1846.5,1482.5z"/>
	<path class="st1" d="M2422.7,1492.2c0,30.1-0.5,60.3,0.3,90.4c0.3,11.9-3.7,14.9-15,14.6c-22.2-0.4-22.2,0.2-22.3-22.7
		c0-57.4,0-114.7,0-172.1c0-17.6,0-17.6-17-17.3c-15.1,0.2-30.1,0.2-45.2,0.4c-6.7,0.1-11.5-1.8-11.2-9.7c0.3-7.2,5.2-7.9,10.9-7.9
		c52.7-0.1,105.5-0.2,158.2-0.4c5.9,0,10.4,0.9,10.5,8.1c0,7.7-4.4,9.7-11.3,9.6c-14.5-0.2-29,0.6-43.4-0.3
		c-11.7-0.7-14.9,4-14.7,15C2423.1,1430.7,2422.7,1461.4,2422.7,1492.2z"/>
	<path class="st1" d="M2605.3,1583c-0.8-33.6-0.3-67.2-0.3-100.8c-0.2,0-0.3,0-0.5,0c0-34.2,0-68.4,0-102.5c0-4.5,2-10.9-3.5-12.2
		c-10.1-2.4-21.1-2.6-30.8,0.7c-8.3,2.8-4.2,12.3-4.2,18.7c-0.2,64.9-0.1,129.8-0.1,194.7c0,16.9-0.2,16.8,17.2,17
		c2.3,0,4.7-0.2,6.9,0.1C2602.9,1600.9,2605.6,1594.9,2605.3,1583z"/>
</g>
</svg>
